<?xml version="1.0" encoding="UTF-8"?>
<!-- Created with Inkscape (http://www.inkscape.org/) -->
<svg width="89.506mm" height="19.004mm" version="1.1" viewBox="0 0 89.506 19.004" xmlns="http://www.w3.org/2000/svg">
 <g transform="translate(-89.548 -192.24)">
  <g transform="matrix(.035278 0 0 -.035278 89.548 211.25)">
   <g fill="#2056ae">
    <path d="m0.0039062 32.078h150.48c39.789 0 74.36 8.5469 98.871 30.156 24.512 21.605 39.54 56.528 39.571 110.75-0.02 58.242-14.043 93.614-37.383 114.56-23.34 20.965-56.758 28.004-96.637 27.996v8e-3h-154.9v-61.219h131.2c19.879 0.105 33.465-6.945 41.148-20.586 7.7-13.535 10.008-32.793 10.04-57.863-0.032-24.227-2.141-43.27-9.668-56.817-7.524-13.621-21.024-20.918-41.122-20.8h-29.89v100.34h-101.71v-166.53"/>
    <path d="m311.02 32.078h101.7v102.83h126.72v63.703h-126.72v55.723h126.72v61.219h-228.42v-283.48"/>
    <path d="m609.48 284.77c-30.047-23.765-49.043-59.109-49.082-106.81 0.039-50.918 18.32-88.352 47.949-113.35 29.648-24.992 70.918-37.5 116.99-37.5 43.156 0.0078 77.246 4.3554 113.12 15v130.8h-86.426v-76.183l-1.914-0.7422c-7.266-2.7696-16.328-2.6563-23.984-2.6914-22.285-0.0625-38.164 9.258-47.91 23.699-9.766 14.426-13.692 33.645-13.711 53.926-0.02 26.965 9.14 48.086 25.371 62.207 16.222 14.133 39.172 21.211 66.386 21.211 27.832 0 49.766-6.262 65.372-14.484v70.531c-25.704 6.277-45.262 10.125-96.309 10.144h-0.02c-44.453 0-85.781-12.011-115.84-35.754"/>
    <path d="m993.53 220.51h8.279c30.8-0.684 46.61 13.984 47.41 43.984-0.23 15.77-4.2 26.895-11.88 33.379-7.83 6.184-17.56 9.227-29.16 9.133h-14.649zm-9.914 95.39h25.013c17.94-0.195 30.92-5.019 38.92-14.453 7.83-9.48 11.68-21.992 11.59-37.511-0.19-18.629-5.66-32.039-16.39-40.204-10.6-8.085-24.42-12.121-41.48-12.121h-17.653v104.29"/>
    <path d="m1128.2 255.02c0 7.011-1.42 13.125-4.25 18.359-2.98 5.293-7.87 8.027-14.67 8.223-6.66-0.196-11.92-2.989-15.8-8.36-3.96-5.437-5.95-11.504-5.95-18.222zm4.42-41.036c-6.92-2.707-14.06-4.101-21.41-4.199-12.07 0.242-20.72 4.082-25.95 11.531-5.19 7.297-7.74 16.758-7.64 28.391 0.1 11.875 2.99 21.484 8.69 28.828 5.51 7.293 12.98 10.996 22.41 11.094 10.31-0.195 17.85-3.945 22.6-11.242 4.52-7.157 6.79-16.004 6.79-26.563v-4.812h-50.58c0-8.301 2.08-15.125 6.23-20.489 4.06-5.722 10.1-8.613 18.12-8.71 3.59 0 7.36 0.656 11.33 1.972 3.96 1.074 7.11 2.313 9.41 3.731v-9.532"/>
    <path d="m1215.4 229.55c-0.1-5.781 0.1-11.758 0.62-17.942h-8.83v13.567h-0.28c-0.66-1.653-1.58-3.332-2.75-5.031-1.14-1.805-2.62-3.504-4.46-5.106-1.83-1.504-4.11-2.695-6.84-3.574-2.69-1.113-5.96-1.68-9.82-1.68-8.94 0.098-15.39 2.891-19.34 8.399-3.96 5.39-5.89 12.382-5.79 20.937v48.684h9.03v-46.321c0-7.304 1.4-13.007 4.18-17.097 2.73-4.387 7.2-6.574 13.38-6.574 4.15 0 7.66 0.898 10.53 2.695 2.93 1.711 5.15 3.894 6.66 6.582 1.74 2.773 2.95 5.762 3.61 8.984 0.71 3.164 1.06 6.348 1.06 9.571v42.16h9.04v-58.254"/>
    <path d="m1272.8 279.78h-16.79v-49.414c0-3.496 0.77-6.445 2.34-8.84 1.41-2.488 3.91-3.718 7.51-3.718 3.3 0 6.11 0.605 8.41 1.816l0.57-7.742c-1.07-0.383-2.58-0.824-4.51-1.301-2.02-0.527-4.24-0.801-6.63-0.801-3.96 0-7.08 0.703-9.39 2.117-2.21 1.418-3.88 3.254-5.01 5.547-0.98 2.387-1.62 5.063-1.9 8.028-0.28 3.019-0.43 6.281-0.43 9.777v44.531h-14.46v8.02h14.46v18.386l9.04 3.282v-21.668h16.79v-8.02"/>
    <path d="m1285.1 222.64c5.61-3.125 12-4.727 19.21-4.824 4.56 0 8.42 1.23 11.57 3.718 3.11 2.297 4.71 5.578 4.81 9.864-0.1 4.535-1.89 8.085-5.37 10.675-3.49 2.481-7.59 4.715-12.3 6.719-2.21 1.074-4.33 2.207-6.36 3.438-2.02 1.211-3.95 2.546-5.79 4.003-1.65 1.622-3.01 3.465-4.1 5.567-1.03 1.992-1.55 4.324-1.55 7.012 0.1 7.597 2.59 12.968 7.48 16.14 4.76 3.117 10.26 4.68 16.52 4.68 2.12 0 4.88-0.195 8.26-0.586 3.34-0.574 6.66-1.523 9.96-2.824l-0.85-8.192c-5.34 2.286-10.8 3.477-16.42 3.575-4.72 0-8.47-0.879-11.25-2.629-1.45-0.926-2.59-2.196-3.39-3.797-0.85-1.563-1.28-3.653-1.28-6.289 0-1.551 0.55-3.047 1.63-4.453 1.04-1.309 2.43-2.5 4.17-3.575 1.75-1.023 3.72-2.07 5.94-3.144 2.22-1.027 4.39-2.121 6.5-3.281 4.82-2.11 9.01-4.903 12.59-8.411 3.59-3.503 5.42-8.347 5.52-14.539 0-3.996-0.78-7.324-2.32-10.011-1.65-2.774-3.72-5.008-6.22-6.715-5.41-3.313-11.14-4.973-17.2-4.973-7.1 0-13.98 1.211-20.6 3.613l0.84 9.239"/>
    <path d="m1397 277.72c-5.24 2.492-10.51 3.781-15.84 3.879-8.87-0.098-15.66-3.028-20.37-8.77-4.95-5.906-7.42-13.613-7.42-23.125 0-8.879 2.43-16.32 7.28-22.316 4.72-6.297 11.22-9.481 19.52-9.578 5.71 0 11.26 1.14 16.69 3.437l0.84-8.789c-5.98-1.875-12.28-2.773-18.92-2.676-11.87 0.242-20.71 4.278-26.5 12.11-5.89 7.695-8.83 16.96-8.83 27.812 0.1 12.07 3.46 21.68 10.1 28.828 6.6 7.293 15.38 10.996 26.36 11.094 4.52 0 8.28-0.344 11.3-1.016 1.55-0.293 2.9-0.605 4.02-0.937 1.08-0.391 1.91-0.723 2.47-1.016l-0.7-8.937"/>
    <path d="m1415.3 323.71h9.03v-48.691h0.28c2.04 4.257 5.02 7.793 8.98 10.605 3.95 2.578 8.61 3.906 13.98 4.004 9.85-0.098 16.56-3.098 20.14-8.984 3.49-5.977 5.18-13.79 5.08-23.418v-45.618h-9.03v45.52c0 3.359-0.19 6.551-0.57 9.57-0.42 2.871-1.25 5.41-2.48 7.598-2.31 4.773-7.15 7.207-14.5 7.305-7.93-0.196-13.6-3.34-17-9.422-3.35-6.086-4.98-12.668-4.88-19.731v-40.84h-9.03v112.1"/>
    <path d="m1543.4 255.02c0 7.011-1.41 13.125-4.25 18.359-2.97 5.293-7.87 8.027-14.66 8.223-6.66-0.196-11.93-2.989-15.8-8.36-3.97-5.437-5.95-11.504-5.95-18.222zm4.43-41.036c-6.93-2.707-14.07-4.101-21.42-4.199-12.07 0.242-20.71 4.082-25.95 11.531-5.18 7.297-7.73 16.758-7.63 28.391 0.09 11.875 2.98 21.484 8.69 28.828 5.51 7.293 12.98 10.996 22.4 11.094 10.31-0.195 17.85-3.945 22.61-11.242 4.52-7.157 6.78-16.004 6.78-26.563v-4.812h-50.57c0-8.301 2.08-15.125 6.23-20.489 4.05-5.722 10.1-8.613 18.11-8.71 3.6 0 7.37 0.656 11.33 1.972 3.97 1.074 7.11 2.313 9.42 3.731v-9.532"/>
    <path d="m983.18 136.54h48.01v-8.898h-38.1v-37.301h36.33v-8.8907h-36.33v-49.195h-9.91v104.29"/>
    <path d="m1054 70.352c0-9.0743 2.13-16.562 6.38-22.461 4.06-6.1914 10.11-9.3437 18.15-9.4336 8.03 0.0899 14.17 3.2422 18.43 9.4336 4.06 5.8985 6.09 13.387 6.09 22.461 0 9.1211-2.03 16.707-6.09 22.754-4.26 5.9961-10.4 9.0425-18.43 9.1405-8.04-0.098-14.09-3.1444-18.15-9.1405-4.25-6.0469-6.38-13.633-6.38-22.754zm-9.91 0c0 10.848 2.8 20.117 8.4 27.801 5.56 7.8827 14.22 11.926 26 12.121 11.96-0.195 20.74-4.238 26.35-12.121 5.42-7.6835 8.12-16.953 8.12-27.801 0-10.656-2.7-19.875-8.12-27.656-5.61-7.9297-14.39-12.02-26.35-12.266-11.78 0.2461-20.44 4.3359-26 12.266-5.6 7.7813-8.4 17-8.4 27.656"/>
    <path d="m1132.9 91.445c0 7.0508-0.18 12.715-0.56 17h9.04v-14.59h0.27c1.75 4.4726 4.2 8.2925 7.37 11.458 3.1 3.203 6.97 4.863 11.59 4.96 2.4-0.097 4.52-0.39 6.36-0.871v-9.7848c-2.02 0.5858-4.24 0.8788-6.64 0.8788-3.59-0.098-6.54-0.9921-8.84-2.703-2.32-1.7969-4.2-4.2383-5.66-7.3047-1.37-3.0195-2.34-6.2617-2.9-9.7188-0.66-3.6992-0.99-7.3007-0.99-10.809v-37.703h-9.04v59.188"/>
    <path d="m1177 43.281c5.6-3.125 12-4.7344 19.21-4.8243 4.56 0 8.41 1.2383 11.57 3.7227 3.1 2.2851 4.7 5.5742 4.8 9.8633-0.1 4.5273-1.88 8.0859-5.37 10.66-3.49 2.4922-7.59 4.7266-12.29 6.7305-2.22 1.0625-4.34 2.2148-6.36 3.4258-2.02 1.2226-3.96 2.5625-5.79 4.0273-1.65 1.5977-3.02 3.4571-4.1 5.543-1.04 2.0039-1.56 4.3359-1.56 7.0234 0.1 7.5977 2.59 12.977 7.48 16.141 4.76 3.117 10.27 4.679 16.53 4.679 2.12 0 4.87-0.195 8.26-0.585 3.34-0.579 6.65-1.524 9.95-2.825l-0.85-8.1911c-5.33 2.2851-10.8 3.4761-16.42 3.5741-4.71 0-8.46-0.867-11.25-2.6288-1.45-0.9258-2.58-2.1875-3.38-3.7969-0.85-1.5625-1.28-3.6523-1.28-6.2773 0-1.5664 0.54-3.0508 1.63-4.4649 1.03-1.3164 2.42-2.5117 4.17-3.5742 1.75-1.0273 3.72-2.0703 5.93-3.1445 2.22-1.0235 4.39-2.1211 6.51-3.293 4.81-2.0898 9-4.8906 12.59-8.3945 3.58-3.5078 5.42-8.3633 5.51-14.543 0-3.9922-0.78-7.332-2.32-10.012-1.65-2.7734-3.72-5.0195-6.21-6.7188-5.41-3.3086-11.14-4.9687-17.21-4.9687-7.1 0-13.97 1.2031-20.59 3.6133l0.84 9.2383"/>
    <path d="m1288.9 98.367c-5.23 2.4918-10.51 3.7808-15.84 3.8788-8.86-0.098-15.65-3.0194-20.37-8.7772-4.95-5.9024-7.42-13.606-7.42-23.117 0-8.8789 2.43-16.32 7.28-22.316 4.72-6.2891 11.23-9.4883 19.53-9.5782 5.7 0 11.26 1.1407 16.69 3.4375l0.84-8.789c-5.98-1.875-12.29-2.7735-18.93-2.6758-11.87 0.2461-20.7 4.2891-26.49 12.121-5.89 7.6836-8.83 16.953-8.83 27.801 0.1 12.059 3.45 21.668 10.1 28.828 6.6 7.2933 15.38 10.996 26.35 11.093 4.52 0 8.28-0.343 11.3-1.015 1.55-0.293 2.9-0.606 4.02-0.938 1.09-0.39 1.92-0.722 2.48-1.015l-0.71-8.9378"/>
    <path d="m1307.2 144.36h9.04v-48.691h0.28c2.03 4.2656 5.02 7.8049 8.97 10.606 3.96 2.57 8.62 3.906 13.99 4.003 9.84-0.097 16.55-3.093 20.13-8.984 3.49-5.9765 5.18-13.789 5.08-23.418v-45.613h-9.03v45.516c0 3.3594-0.19 6.5508-0.57 9.5704-0.42 2.871-1.25 5.4101-2.48 7.5976-2.3 4.7774-7.15 7.2066-14.5 7.3046-7.93-0.195-13.59-3.328-16.99-9.4257-3.35-6.082-4.98-12.664-4.88-19.726v-40.836h-9.04v112.1"/>
    <path d="m1447.8 50.203c-0.1-5.789 0.1-11.773 0.62-17.945h-8.83v13.562h-0.28c-0.66-1.6484-1.58-3.332-2.75-5.0273-1.14-1.8008-2.62-3.5078-4.46-5.1094-1.83-1.5039-4.11-2.6953-6.84-3.5742-2.69-1.1133-5.96-1.6797-9.82-1.6797-8.94 0.0976-15.39 2.8984-19.34 8.3984-3.96 5.3985-5.89 12.371-5.79 20.938v48.679h9.03v-46.316c0-7.3164 1.4-13.008 4.18-17.102 2.73-4.3828 7.2-6.5703 13.38-6.5703 4.15 0 7.66 0.8985 10.54 2.6953 2.93 1.7071 5.14 3.8985 6.66 6.5821 1.73 2.7734 2.95 5.7734 3.6 8.9844 0.71 3.164 1.06 6.3554 1.06 9.5703v42.156h9.04v-58.242"/>
    <path d="m1473.4 90.574c0 5.8321-0.18 11.789-0.56 17.871h8.81v-13.562h0.29c0.84 1.7969 1.85 3.5938 3.02 5.3902 1.14 1.805 2.57 3.426 4.31 4.895 1.84 1.598 4.09 2.867 6.78 3.785 2.72 0.883 5.95 1.32 9.66 1.32 9.08-0.097 15.59-2.902 19.54-8.398 3.77-5.3516 5.64-12.305 5.64-20.867v-48.75h-9.03v46.394c0 7.254-1.3 13.027-3.9 17.316-2.83 4.0902-7.38 6.1792-13.65 6.2772-8.11-0.195-13.83-3.164-17.13-8.9062-1.7-2.7343-2.9-5.6835-3.61-8.8476-0.75-3.3125-1.13-6.6719-1.13-10.078v-42.156h-9.04v58.316"/>
    <path d="m1562.1 70.352c-0.1-7.8008 1.53-14.637 4.89-20.488 3.31-6.2031 8.79-9.3945 16.44-9.5899 8.23 0.1954 14.06 3.4883 17.51 9.8829 3.3 6.1914 4.96 12.918 4.96 20.195 0 9.5117-1.54 17.168-4.61 22.969-3.21 5.8594-8.97 8.8277-17.29 8.9257-4.35 0-7.89-0.945-10.63-2.8515-2.79-1.7578-5.05-4.2382-6.8-7.4609-1.57-2.9805-2.72-6.3672-3.48-10.168-0.66-3.8047-0.99-7.6172-0.99-11.414zm52.84-31.828c0-10.848-2.55-19.922-7.64-27.215-5.32-7.3438-14.3-11.113-26.91-11.309-4.86 0.097656-9.31 0.625-13.36 1.5938-3.96 1.0234-6.96 1.8125-8.98 2.3984l0.78 9.3555c6.09-3.3594 13.33-5.1329 21.73-5.3321 5.9 0.09765 10.52 1.1953 13.88 3.2852 3.48 1.9922 6.05 4.7851 7.71 8.3789 1.74 3.5898 2.85 7.7226 3.32 12.391 0.39 4.668 0.58 9.6875 0.58 15.086h-0.29c-5.23-10.125-12.7-15.098-22.41-14.898-11.59 0.293-19.69 4.5664-24.3 12.84-2.45 3.7968-4.15 7.8789-5.1 12.266-1.17 4.375-1.76 8.6992-1.76 12.988-0.1 11.867 2.28 21.426 7.14 28.68 4.81 7.3947 12.55 11.145 23.25 11.242 4.85 0 9.11-0.554 12.79-1.671 3.53-1.356 6.95-4.247 10.25-8.6918h0.28v8.5588l9.04-0.024v-69.922"/>
    <path d="m1634 43.281c5.6-3.125 12-4.7344 19.21-4.8243 4.56 0 8.42 1.2383 11.57 3.7227 3.11 2.2851 4.71 5.5742 4.8 9.8633-0.09 4.5273-1.88 8.0859-5.37 10.66-3.48 2.4922-7.58 4.7266-12.29 6.7305-2.22 1.0625-4.34 2.2148-6.36 3.4258-2.02 1.2226-3.95 2.5625-5.79 4.0273-1.65 1.5977-3.02 3.4571-4.1 5.543-1.04 2.0039-1.55 4.3359-1.55 7.0234 0.09 7.5977 2.58 12.977 7.48 16.141 4.75 3.117 10.26 4.679 16.52 4.679 2.12 0 4.87-0.195 8.26-0.585 3.34-0.579 6.65-1.524 9.95-2.825l-0.85-8.1911c-5.33 2.2851-10.8 3.4761-16.41 3.5741-4.72 0-8.47-0.867-11.25-2.6288-1.46-0.9258-2.59-2.1875-3.39-3.7969-0.85-1.5625-1.28-3.6523-1.28-6.2773 0-1.5664 0.55-3.0508 1.63-4.4649 1.03-1.3164 2.42-2.5117 4.17-3.5742 1.75-1.0273 3.72-2.0703 5.94-3.1445 2.21-1.0235 4.38-2.1211 6.5-3.293 4.82-2.0898 9-4.8906 12.59-8.3945 3.58-3.5078 5.42-8.3633 5.52-14.543 0-3.9922-0.78-7.332-2.33-10.012-1.65-2.7734-3.72-5.0195-6.21-6.7188-5.41-3.3086-11.14-4.9687-17.21-4.9687-7.1 0-13.97 1.2031-20.59 3.6133l0.84 9.2383"/>
    <path d="m1703.4 70.352c-0.1-7.8008 1.53-14.637 4.89-20.488 3.31-6.2031 8.79-9.3945 16.44-9.5899 8.22 0.1954 14.05 3.4883 17.51 9.8829 3.3 6.1914 4.96 12.918 4.96 20.195 0 9.5117-1.54 17.168-4.61 22.969-3.21 5.8594-8.97 8.8277-17.29 8.9257-4.35 0-7.89-0.945-10.63-2.8515-2.79-1.7578-5.06-4.2382-6.8-7.4609-1.57-2.9805-2.72-6.3672-3.48-10.168-0.66-3.8047-0.99-7.6172-0.99-11.414zm52.84-31.828c0-10.848-2.55-19.922-7.64-27.215-5.32-7.3438-14.3-11.113-26.92-11.309-4.85 0.097656-9.3 0.625-13.35 1.5938-3.96 1.0234-6.96 1.8125-8.98 2.3984l0.78 9.3555c6.09-3.3594 13.33-5.1329 21.73-5.3321 5.9 0.09765 10.52 1.1953 13.88 3.2852 3.48 1.9922 6.05 4.7851 7.71 8.3789 1.74 3.5898 2.85 7.7226 3.32 12.391 0.39 4.668 0.58 9.6875 0.58 15.086h-0.29c-5.23-10.125-12.7-15.098-22.41-14.898-11.59 0.293-19.69 4.5664-24.3 12.84-2.45 3.7968-4.15 7.8789-5.1 12.266-1.17 4.375-1.76 8.6992-1.76 12.988-0.1 11.867 2.28 21.426 7.14 28.68 4.8 7.3947 12.55 11.145 23.25 11.242 4.85 0 9.11-0.554 12.79-1.671 3.53-1.356 6.95-4.247 10.25-8.6918h0.28v8.5588l9.04-0.024v-69.922"/>
    <path d="m1826 75.676c0 6.9922-1.42 13.113-4.25 18.348-2.98 5.293-7.87 8.0276-14.67 8.2226-6.66-0.195-11.92-2.9804-15.8-8.3671-3.96-5.4336-5.94-11.508-5.94-18.203zm4.42-41.059c-6.92-2.6914-14.06-4.0899-21.41-4.1875-12.07 0.2461-20.71 4.0898-25.95 11.535-5.18 7.293-7.73 16.754-7.64 28.387 0.1 11.867 2.99 21.473 8.7 28.828 5.5 7.2933 12.97 10.996 22.4 11.093 10.31-0.195 17.85-3.945 22.61-11.242 4.52-7.1446 6.78-16.004 6.78-26.562v-4.8125h-50.57c0-8.293 2.08-15.129 6.23-20.5 4.05-5.7032 10.09-8.6094 18.11-8.6993 3.6 0 7.37 0.6524 11.33 1.9727 3.97 1.0742 7.11 2.3125 9.41 3.7305v-9.543"/>
    <path d="m1946.3 32.258v50.703c0 2.8204-0.19 5.4258-0.58 7.8204-0.6 2.2851-1.55 4.2851-2.88 5.9843-1.18 1.7578-2.82 3.1446-4.94 4.1724-2.11 0.867-4.75 1.308-7.89 1.308-5.31 0-10.03-2.187-14.15-6.5702-4.23-4.582-6.4-11.672-6.5-21.262v-42.156h-9.03v50.703c0 2.8204-0.23 5.4258-0.67 7.8204-0.58 2.2851-1.55 4.2851-2.87 5.9843-1.18 1.7578-2.83 3.1446-4.94 4.1724-2.12 0.867-4.74 1.308-7.89 1.308-5.31 0-10.03-2.187-14.16-6.5702-4.23-4.582-6.39-11.672-6.48-21.262v-42.156h-9.06v58.309c0 5.8399-0.18 11.797-0.56 17.879h9.09v-12.851l0.28-0.1329c0.69 1.4024 1.63 2.9571 2.84 4.6681 0.97 1.695 2.36 3.277 4.14 4.742 1.8 1.508 4.03 2.824 6.69 3.938 2.67 0.976 5.99 1.464 9.96 1.464 1.8 0 3.75-0.195 5.83-0.585 1.99-0.391 3.97-1.192 5.96-2.403 1.98-1.113 3.73-2.715 5.24-4.797 1.45-2.175 2.5-4.9372 3.12-8.2888h0.29c1.89 4.5625 4.93 8.3598 9.1 11.414 4.07 3.008 9.13 4.563 15.19 4.66 7.71-0.097 13.64-2.48 17.81-7.16 4.08-4.6169 6.12-10.75 6.12-18.386v-52.469h-9.06"/>
    <path d="m2025.2 75.676c0 6.9922-1.42 13.113-4.25 18.348-2.98 5.293-7.87 8.0276-14.67 8.2226-6.66-0.195-11.92-2.9804-15.8-8.3671-3.96-5.4336-5.94-11.508-5.94-18.203zm4.42-41.059c-6.92-2.6914-14.06-4.0899-21.41-4.1875-12.07 0.2461-20.72 4.0898-25.95 11.535-5.19 7.293-7.73 16.754-7.64 28.387 0.1 11.867 2.99 21.473 8.69 28.828 5.51 7.2933 12.98 10.996 22.41 11.093 10.31-0.195 17.85-3.945 22.6-11.242 4.53-7.1446 6.79-16.004 6.79-26.562v-4.8125h-50.57c0-8.293 2.08-15.129 6.23-20.5 4.05-5.7032 10.09-8.6094 18.11-8.6993 3.59 0 7.36 0.6524 11.33 1.9727 3.96 1.0742 7.11 2.3125 9.41 3.7305v-9.543"/>
    <path d="m2055 108.44h9.03v-76.187h-9.03zm9.03 20.364h-9.03v12.539h9.03v-12.539"/>
    <path d="m2088.2 90.574c0 5.8321-0.19 11.789-0.57 17.871h8.82v-13.562h0.28c0.84 1.7969 1.86 3.5938 3.03 5.3902 1.13 1.805 2.57 3.426 4.31 4.895 1.83 1.598 4.09 2.867 6.78 3.785 2.72 0.883 5.94 1.32 9.65 1.32 9.09-0.097 15.6-2.902 19.55-8.398 3.76-5.3516 5.64-12.305 5.64-20.867v-48.75h-9.03v46.394c0 7.254-1.3 13.027-3.9 17.316-2.83 4.0902-7.38 6.1792-13.65 6.2772-8.12-0.195-13.83-3.164-17.13-8.9062-1.7-2.7343-2.9-5.6835-3.61-8.8476-0.76-3.3125-1.14-6.6719-1.14-10.078v-42.156h-9.03v58.316"/>
    <path d="m2165.6 43.281c5.61-3.125 12-4.7344 19.21-4.8243 4.56 0 8.42 1.2383 11.57 3.7227 3.11 2.2851 4.71 5.5742 4.81 9.8633-0.1 4.5273-1.89 8.0859-5.37 10.66-3.49 2.4922-7.59 4.7266-12.3 6.7305-2.22 1.0625-4.34 2.2148-6.36 3.4258-2.02 1.2226-3.95 2.5625-5.79 4.0273-1.65 1.5977-3.02 3.4571-4.1 5.543-1.03 2.0039-1.55 4.3359-1.55 7.0234 0.1 7.5977 2.59 12.977 7.48 16.141 4.75 3.117 10.26 4.679 16.52 4.679 2.12 0 4.87-0.195 8.26-0.585 3.34-0.579 6.65-1.524 9.95-2.825l-0.85-8.1911c-5.33 2.2851-10.8 3.4761-16.41 3.5741-4.72 0-8.47-0.867-11.25-2.6288-1.46-0.9258-2.59-2.1875-3.39-3.7969-0.85-1.5625-1.28-3.6523-1.28-6.2773 0-1.5664 0.55-3.0508 1.63-4.4649 1.04-1.3164 2.42-2.5117 4.17-3.5742 1.75-1.0273 3.72-2.0703 5.94-3.1445 2.22-1.0235 4.38-2.1211 6.5-3.293 4.82-2.0898 9.01-4.8906 12.59-8.3945 3.58-3.5078 5.42-8.3633 5.52-14.543 0-3.9922-0.78-7.332-2.33-10.012-1.65-2.7734-3.72-5.0195-6.21-6.7188-5.41-3.3086-11.14-4.9687-17.2-4.9687-7.1 0-13.98 1.2031-20.6 3.6133l0.84 9.2383"/>
    <path d="m2277.4 98.367c-5.24 2.4918-10.51 3.7808-15.84 3.8788-8.87-0.098-15.66-3.0194-20.37-8.7772-4.96-5.9024-7.43-13.606-7.43-23.117 0-8.8789 2.44-16.32 7.29-22.316 4.72-6.2891 11.22-9.4883 19.52-9.5782 5.7 0 11.26 1.1407 16.69 3.4375l0.84-8.789c-5.98-1.875-12.29-2.7735-18.93-2.6758-11.86 0.2461-20.7 4.2891-26.49 12.121-5.89 7.6836-8.83 16.953-8.83 27.801 0.1 12.059 3.46 21.668 10.1 28.828 6.6 7.2933 15.38 10.996 26.36 11.093 4.52 0 8.28-0.343 11.3-1.015 1.55-0.293 2.9-0.606 4.02-0.938 1.08-0.39 1.91-0.722 2.47-1.015l-0.7-8.9378"/>
    <path d="m2295.8 144.36h9.03v-48.691h0.28c2.03 4.2656 5.02 7.8049 8.98 10.606 3.95 2.57 8.61 3.906 13.98 4.003 9.85-0.097 16.55-3.093 20.14-8.984 3.49-5.9765 5.17-13.789 5.08-23.418v-45.613h-9.04v45.516c0 3.3594-0.18 6.5508-0.56 9.5704-0.42 2.871-1.25 5.4101-2.48 7.5976-2.31 4.7774-7.15 7.2066-14.51 7.3046-7.92-0.195-13.59-3.328-16.99-9.4257-3.35-6.082-4.98-12.664-4.88-19.726v-40.836h-9.03v112.1"/>
    <path d="m2420.4 70.652h-2.62c-3.97 0-7.93-0.1054-11.9-0.3007-4.15-0.3828-7.93-1.2422-11.32-2.5586-3.4-1.1719-6.12-2.9961-8.14-5.4883-2.23-2.5391-3.33-5.8984-3.33-10.098 0-4.8711 1.55-8.3672 4.67-10.461 2.88-2.1953 6.44-3.2891 10.69-3.2891 5.33 0 9.53 1.0938 12.6 3.2891 3.03 2.0937 5.21 4.582 6.58 7.4648 1.42 3.125 2.23 6.1719 2.41 9.1485 0.24 3.1133 0.36 5.6836 0.36 7.6758zm0.83-26.199h-0.28c-2.12-4.4531-5.37-7.8711-9.74-10.242-4.34-2.4257-8.91-3.6836-13.72-3.7812-5.13 0.0976-9.28 0.9492-12.44 2.5469-3.3 1.5039-5.82 3.4023-7.56 5.6836-3.07 4.9531-4.51 9.375-4.31 13.266 0 6.3672 1.48 11.383 4.45 15.078 2.92 3.6875 6.64 6.3359 11.17 7.9453 4.52 1.6524 9.45 2.7461 14.77 3.2735 5.23 0.2929 10.25 0.4375 15.06 0.4375h1.77v3.8984c0.29 13.125-5.33 19.687-16.85 19.687-7.64 0.098-14.88-2.004-21.73-6.3163v9.1363c6.84 3.274 14.06 5.012 21.69 5.207 17.47 0.188 26.11-9.265 25.92-28.386v-33.644c-0.15-5.793 0.11-11.125 0.76-15.984h-8.96v12.195"/>
    <path d="m2459.8 100.42h-14.9v8.023h14.9v5.547c0 4.082 0.18 8.078 0.57 11.965 0.18 3.801 0.91 7.18 2.18 10.145 1.22 3.117 3.2 5.57 5.93 7.375 2.58 1.746 6.18 2.625 10.79 2.625 1.55 0 3.15-0.047 4.8-0.145 1.65-0.293 2.89-0.734 3.74-1.309l-0.57-8.242c-2.03 1.114-4.43 1.68-7.22 1.68-3.02 0-5.31-0.715-6.86-2.117-1.66-1.614-2.77-3.559-3.33-5.84-0.57-2.285-0.85-4.731-0.85-7.309-0.1-2.675-0.15-5.254-0.15-7.73v-6.645h16.64v-8.023h-16.64v-68.164h-9.03v68.164"/>
    <path d="m2535.1 100.42h-16.79v-49.399c0-3.5117 0.78-6.4531 2.34-8.8437 1.41-2.4844 3.91-3.7227 7.51-3.7227 3.3 0 6.11 0.6055 8.42 1.8243l0.56-7.754c-1.07-0.3906-2.58-0.8164-4.51-1.2968-2.02-0.5391-4.24-0.8008-6.63-0.8008-3.95 0-7.08 0.7031-9.38 2.1211-2.22 1.4023-3.89 3.2578-5.01 5.543-0.99 2.3828-1.63 5.0585-1.91 8.0273-0.28 3.0195-0.43 6.2812-0.43 9.7773v44.524h-14.46v8.023h14.46v18.391l9.04 3.281v-21.672h16.79v-8.023"/>
   </g>
   <g transform="scale(10)">
    <text transform="matrix(1 0 0 -1 0 44.502)" fill="#6ba2dc" font-family="Frutiger" font-size="12.251px" font-weight="300"><tspan x="0 8.8452225 14.970722 19.050304 25.86186 29.724216 36.535774 42.661274 46.740856 50.822655 54.225971 61.039455 67.852936 71.711334 77.148827" y="0">Gefördert durch</tspan></text>
   </g>
  </g>
 </g>
</svg>
