<?xml version="1.0" standalone="no"?>
<!DOCTYPE svg PUBLIC "-//W3C//DTD SVG 20010904//EN"
 "http://www.w3.org/TR/2001/REC-SVG-20010904/DTD/svg10.dtd">
<svg version="1.0" xmlns="http://www.w3.org/2000/svg"
 width="1536.000000pt" height="659.000000pt" viewBox="0 0 1536.000000 659.000000"
 preserveAspectRatio="xMidYMid meet">
<metadata>
Created by potrace 1.16, written by Peter Selinger 2001-2019
</metadata>
<g transform="translate(0.000000,659.000000) scale(0.100000,-0.100000)"
fill="#000000" stroke="none">
<path d="M12275 6567 c-55 -26 -94 -66 -126 -128 l-19 -39 -50 25 c-236 120
-573 32 -797 -209 -119 -126 -168 -249 -161 -401 3 -82 8 -101 40 -166 41 -84
128 -178 221 -241 l59 -40 -67 -45 c-44 -29 -109 -59 -184 -84 l-116 -40 -185
12 c-236 15 -775 6 -965 -15 -766 -86 -1348 -312 -1815 -704 -397 -333 -706
-814 -894 -1389 -166 -513 -256 -1128 -256 -1760 0 -222 0 -223 -22 -233 -38
-16 -442 -116 -598 -149 -414 -85 -783 -87 -1148 -5 -340 76 -674 212 -947
386 -966 614 -1531 864 -2104 929 -131 15 -435 7 -549 -15 -466 -87 -882 -323
-1287 -732 -136 -136 -313 -337 -259 -294 196 159 268 214 379 289 153 103
277 174 412 238 876 410 1797 291 2773 -360 74 -50 179 -123 232 -164 54 -40
168 -120 255 -177 267 -174 430 -258 621 -317 53 -17 142 -46 197 -64 212 -71
522 -114 865 -122 368 -8 516 10 1077 130 l251 55 163 -55 c172 -57 387 -116
579 -157 63 -14 153 -39 200 -57 155 -57 642 -219 825 -274 245 -73 345 -99
515 -136 141 -30 151 -31 389 -30 167 1 291 -4 390 -15 220 -24 385 -12 601
47 44 12 80 27 80 33 0 39 -105 91 -272 136 -202 53 -309 70 -593 95 -364 32
-474 53 -604 120 -78 39 -167 110 -181 144 -12 30 -11 34 16 62 16 17 83 60
149 96 66 36 167 95 225 131 200 124 384 234 439 262 31 16 106 74 166 130
345 319 595 463 825 477 120 7 187 -7 293 -60 67 -33 101 -60 182 -141 86 -86
116 -126 205 -271 134 -220 339 -533 397 -606 24 -31 68 -73 96 -93 29 -20 64
-45 79 -57 23 -19 39 -22 130 -22 111 0 195 9 218 23 13 8 12 15 -5 47 -26 49
-89 86 -243 143 l-123 45 -35 109 c-87 269 -120 467 -111 665 7 163 33 254
137 471 43 91 85 182 94 202 8 21 48 84 89 141 78 108 196 289 337 517 123
200 288 441 387 565 108 136 345 374 478 481 188 150 281 208 375 234 292 80
572 216 785 379 214 163 465 476 545 676 35 87 34 117 -1 166 -39 55 -231 131
-490 193 -117 28 -142 38 -170 65 -196 187 -748 318 -1609 382 l-165 13 -50
100 c-181 364 -397 535 -570 453z m1555 -1092 c74 -38 110 -132 80 -211 -21
-54 -73 -123 -102 -135 -69 -29 -174 0 -216 58 -11 16 -25 47 -31 69 -42 155
127 292 269 219z"/>
<path d="M12886 3027 l-117 -172 113 -7 c62 -3 145 -11 183 -17 100 -15 170
-14 184 3 9 11 10 29 2 71 -16 84 -53 130 -222 272 l-26 22 -117 -172z"/>
</g>
</svg>
