<?xml version="1.0" standalone="no"?>
<!DOCTYPE svg PUBLIC "-//W3C//DTD SVG 20010904//EN"
 "http://www.w3.org/TR/2001/REC-SVG-20010904/DTD/svg10.dtd">
<svg version="1.0" xmlns="http://www.w3.org/2000/svg"
 width="1536.000000pt" height="604.000000pt" viewBox="0 0 1536.000000 604.000000"
 preserveAspectRatio="xMidYMid meet">
<metadata>
Created by potrace 1.16, written by Peter Selinger 2001-2019
</metadata>
<g transform="translate(0.000000,604.000000) scale(0.100000,-0.100000)"
fill="#000000" stroke="none">
<path d="M11988 5974 c-59 -18 -105 -63 -114 -112 -17 -89 37 -222 140 -346
36 -43 66 -81 66 -84 0 -11 -81 13 -203 59 -127 49 -135 51 -217 47 -66 -2
-98 -9 -141 -30 -121 -56 -169 -128 -188 -280 -14 -118 -29 -146 -91 -166 -23
-7 -98 -5 -118 3 -9 4 -26 9 -36 10 -11 1 -30 15 -43 31 -13 16 -21 21 -17 12
8 -23 3 -23 -56 7 -34 17 -60 41 -87 80 -59 87 -67 95 -34 33 17 -32 29 -58
25 -58 -20 0 -47 28 -84 90 -50 83 -65 94 -20 15 17 -30 27 -55 21 -55 -16 0
-112 123 -209 266 -7 11 2 -9 19 -43 17 -35 35 -63 41 -63 5 0 6 -5 2 -12 -5
-7 -3 -8 5 -4 8 5 11 3 10 -5 -5 -23 12 -63 21 -50 5 8 13 3 25 -16 18 -28 18
-28 -2 -10 -11 9 -23 14 -26 11 -11 -11 -35 15 -84 90 -25 39 -51 76 -56 81
-11 11 50 -102 66 -122 6 -9 5 -13 -5 -13 -31 0 -51 30 -83 121 -19 51 -34 85
-35 74 -1 -15 -5 -12 -20 15 -33 59 -22 25 22 -70 22 -50 39 -93 35 -96 -6 -7
-107 43 -107 54 0 4 -10 18 -21 32 l-21 25 17 -28 c9 -16 14 -31 12 -34 -10
-10 -46 18 -67 52 -26 43 -36 46 -15 5 25 -49 -7 -38 -51 18 -62 78 -74 81
-16 5 21 -28 22 -33 7 -33 -9 0 -27 12 -40 28 -13 15 -34 38 -45 52 l-22 25
19 -30 c37 -57 34 -60 -13 -10 -27 29 -39 38 -27 20 37 -57 38 -58 12 -50 -35
11 -79 55 -191 195 -127 157 -139 168 -100 99 17 -31 28 -59 25 -63 -3 -3 21
-37 53 -77 86 -103 98 -120 82 -114 -15 6 -120 120 -177 192 -19 23 -38 40
-44 36 -7 -4 -8 1 -3 13 4 10 4 15 0 11 -4 -4 -14 -1 -22 6 -9 6 3 -16 27 -51
23 -34 46 -60 50 -57 5 2 15 -3 22 -13 13 -15 12 -16 -3 -3 -32 24 -19 -1 28
-56 26 -30 44 -56 41 -59 -3 -3 -27 9 -52 26 -46 31 -106 113 -154 208 -12 23
-24 42 -27 42 -3 0 15 -38 39 -84 l43 -84 -35 26 c-19 15 -51 52 -70 83 -20
31 -42 65 -49 75 -11 17 -11 17 -2 -3 14 -31 12 -37 -7 -22 -16 13 -17 12 -4
-3 7 -10 17 -15 22 -12 5 3 9 -2 9 -11 0 -9 34 -61 75 -116 71 -94 74 -99 49
-99 -35 0 -152 106 -235 211 -34 43 -64 79 -66 79 -2 0 15 -27 37 -60 22 -33
37 -60 33 -60 -4 0 19 -28 52 -61 64 -66 48 -65 -42 3 -29 21 -53 36 -53 33 0
-3 36 -32 81 -65 79 -58 80 -60 47 -60 -53 0 -101 17 -169 61 -35 23 -57 33
-49 23 36 -44 -79 36 -159 111 -68 63 -76 69 -38 26 26 -29 44 -57 41 -62 -3
-5 -2 -9 3 -8 19 3 33 -2 31 -10 -2 -6 28 -33 67 -60 38 -28 67 -51 63 -51 -8
0 -168 89 -200 112 -16 11 -28 17 -28 14 0 -4 35 -29 78 -57 85 -56 83 -57
-35 -5 -46 19 -83 34 -83 32 0 -2 30 -23 66 -47 37 -24 62 -45 55 -47 -15 -5
-95 34 -131 65 -17 14 -35 21 -41 17 -7 -4 -9 -3 -6 3 4 5 -8 23 -26 39 l-32
29 29 -32 c39 -43 22 -42 -50 5 -77 49 -95 59 -64 33 14 -12 72 -49 129 -84
83 -50 99 -63 80 -65 -14 -3 -63 16 -121 46 -54 27 -98 48 -98 47 0 -1 25 -19
55 -39 30 -20 55 -38 55 -41 0 -6 -79 33 -150 75 -83 49 -84 21 -1 -33 65 -41
69 -45 45 -50 -21 -4 -37 6 -85 51 -33 30 -57 57 -54 60 3 3 -4 12 -15 19 -11
8 -17 20 -14 26 4 7 3 9 -1 4 -5 -4 -31 14 -59 40 -42 41 -45 43 -20 11 16
-20 58 -69 94 -109 68 -75 63 -76 -40 -11 -30 19 -49 29 -43 21 6 -8 46 -34
87 -59 42 -25 76 -48 76 -52 0 -5 -16 -8 -37 -8 -36 0 -120 41 -210 102 -24
16 -43 26 -43 23 0 -3 41 -33 92 -65 91 -59 92 -60 55 -60 -31 0 -49 10 -115
67 -67 58 -71 60 -32 18 25 -27 56 -59 70 -71 l25 -23 -38 -1 c-36 0 -46 8
-163 125 -68 69 -124 121 -124 116 0 -5 50 -60 110 -124 61 -63 110 -117 110
-120 0 -3 -24 -9 -54 -12 -47 -6 -60 -4 -88 15 -27 18 -29 18 -10 2 28 -26 28
-32 -3 -32 -16 0 -52 23 -103 66 l-77 65 74 -69 74 -70 -33 -7 c-27 -6 -37 -2
-68 26 l-37 34 29 -32 c16 -18 28 -34 25 -36 -2 -2 -24 -9 -48 -15 l-44 -11
-91 91 c-50 50 -85 83 -77 72 8 -10 46 -52 85 -91 39 -40 67 -73 62 -73 -5 0
-71 54 -148 121 -77 66 -142 119 -144 116 -3 -2 51 -61 119 -131 125 -127 147
-162 53 -84 l-51 41 44 -45 c41 -44 42 -46 21 -53 -18 -6 -35 5 -94 61 -66 64
-56 47 23 -38 l34 -37 -27 -7 c-22 -5 -34 -1 -58 22 l-32 29 22 -29 c12 -16
22 -33 22 -37 0 -23 -30 -4 -84 53 l-58 63 46 -57 c25 -31 46 -59 46 -63 0 -4
-26 14 -57 40 -32 25 -85 67 -118 92 -53 41 -48 34 45 -61 85 -86 100 -106 82
-106 -12 0 -44 19 -70 42 l-47 42 43 -45 c23 -25 42 -47 42 -51 0 -16 -88 -33
-100 -19 -3 3 -36 35 -75 71 l-70 64 77 -79 78 -80 -53 -28 c-29 -15 -59 -27
-68 -27 -8 0 -37 14 -64 31 -27 17 -43 24 -36 15 7 -9 29 -26 48 -37 l35 -22
-23 -18 c-13 -10 -32 -19 -42 -19 -22 0 -127 44 -181 76 l-41 25 28 -24 c16
-13 59 -39 98 -57 38 -19 69 -37 69 -40 0 -9 -60 -42 -60 -33 0 4 -5 0 -11
-10 -9 -16 -17 -13 -77 33 l-67 51 59 -54 59 -54 -24 -16 c-13 -10 -32 -17
-43 -17 -11 0 -16 -3 -13 -7 4 -3 0 -14 -9 -24 -15 -17 -19 -17 -48 -2 -31 16
-31 15 -13 -4 23 -26 22 -28 -13 -53 l-30 -22 -75 41 c-82 44 -102 48 -29 5
34 -20 42 -29 32 -36 -9 -6 -5 -7 11 -3 16 5 21 4 17 -4 -4 -6 0 -11 8 -11 22
0 19 -12 -8 -32 -21 -15 -26 -15 -77 2 -30 10 -78 27 -108 39 -65 26 -76 22
-24 -10 21 -12 54 -35 74 -51 20 -15 39 -25 42 -22 3 3 14 1 24 -6 15 -10 15
-11 1 -6 -12 3 -15 1 -11 -10 8 -22 -56 -18 -91 5 -17 11 -34 17 -39 14 -5 -3
11 -19 37 -34 25 -16 46 -33 46 -38 0 -19 -21 -22 -45 -7 -14 9 -37 23 -52 32
-28 16 -28 16 -7 -2 11 -11 31 -27 45 -36 l24 -18 -30 6 -30 5 29 -13 c25 -12
27 -15 12 -27 -13 -11 -25 -11 -66 -1 -28 7 -54 9 -57 6 -4 -3 0 -6 8 -6 8 0
31 -5 52 -11 l38 -10 -40 -47 c-21 -26 -55 -65 -73 -86 l-35 -40 -36 23 c-20
12 -37 20 -37 18 0 -3 16 -15 36 -27 58 -37 30 -47 -78 -27 -51 9 -94 15 -96
13 -4 -5 124 -36 148 -36 11 0 20 -5 20 -11 0 -11 -128 -199 -135 -199 -3 0
-30 12 -62 26 -128 57 -135 51 -21 -17 62 -37 69 -44 49 -47 -18 -3 -21 -6
-11 -12 21 -13 -5 -38 -43 -43 l-32 -4 32 -1 32 -2 -25 -44 c-32 -57 -41 -64
-89 -69 l-40 -4 42 -1 c41 -2 42 -3 32 -26 -10 -20 -23 -26 -73 -35 l-61 -10
53 2 c28 1 52 -1 52 -5 0 -21 -25 -57 -44 -62 -35 -10 -278 -6 -325 5 -24 5
-46 8 -48 5 -11 -11 116 -30 242 -35 159 -8 160 -4 -13 -71 -46 -18 -81 -34
-79 -37 3 -2 44 5 92 17 49 11 90 18 93 15 10 -10 -21 -65 -40 -71 -11 -3 -62
-10 -112 -14 l-91 -9 102 3 c56 2 100 -1 97 -5 -3 -5 -44 -20 -92 -35 -113
-34 -115 -35 -63 -28 25 4 69 15 98 25 29 10 53 16 53 13 0 -3 -42 -25 -92
-49 -104 -50 -104 -54 -4 -25 96 27 95 17 -1 -14 -85 -27 -80 -36 6 -10 29 8
54 14 55 12 2 -2 -1 -17 -6 -34 -7 -30 -15 -34 -106 -63 -140 -44 -145 -45
-207 -26 -83 24 -78 12 6 -15 57 -19 68 -25 53 -32 -12 -5 -4 -6 21 -2 22 3
52 1 65 -5 25 -10 25 -10 -5 -11 -16 0 -37 -5 -45 -11 -11 -8 -5 -9 25 -5 133
21 135 21 135 -5 0 -37 -9 -43 -93 -74 -74 -27 -81 -27 -202 -21 -69 4 -125 6
-125 3 0 -6 125 -35 188 -42 29 -4 51 -9 48 -12 -3 -3 -34 -14 -68 -24 -35 -9
-56 -18 -46 -18 9 -1 45 8 80 19 34 11 87 20 116 20 57 0 63 -14 11 -25 -17
-4 -28 -9 -25 -12 3 -3 19 0 37 6 36 12 42 11 34 -11 -8 -19 -53 -40 -67 -32
-6 4 -8 2 -4 -4 3 -6 -9 -15 -30 -22 -19 -7 -33 -14 -31 -16 2 -2 23 3 47 11
56 20 70 19 70 -4 0 -40 -24 -46 -224 -51 l-191 -5 117 -19 c74 -12 115 -22
111 -29 -3 -6 -1 -7 6 -3 13 9 132 -2 151 -14 7 -4 9 -16 5 -29 -5 -18 -14
-21 -63 -21 -52 1 -164 17 -237 35 -16 4 -28 5 -25 2 3 -3 57 -19 120 -35 98
-26 111 -31 86 -38 -30 -7 -240 1 -291 12 -16 4 -27 4 -24 0 7 -7 183 -36 250
-40 25 -2 56 -7 69 -11 22 -7 22 -8 -11 -22 -20 -8 -50 -12 -74 -9 -37 5 -36
3 5 -11 9 -3 -4 -13 -35 -25 -48 -19 -76 -20 -155 -3 -14 3 0 -3 30 -14 30
-11 94 -26 143 -32 84 -12 115 -28 60 -30 -16 -1 -21 -3 -12 -6 8 -2 41 0 72
5 43 7 57 6 57 -3 0 -13 -119 -51 -192 -61 -27 -4 -48 -11 -48 -15 0 -13 6
-12 125 16 59 14 109 24 112 22 2 -2 1 -29 -3 -60 l-7 -55 -87 -41 c-48 -22
-125 -52 -171 -66 -46 -14 -66 -23 -44 -20 34 6 147 41 220 69 11 5 -7 -9 -40
-29 -80 -50 -255 -135 -280 -135 -11 0 -29 -8 -40 -17 l-20 -16 20 7 c11 4 70
19 130 32 93 21 238 62 283 80 8 4 12 -5 12 -29 0 -26 -7 -41 -26 -56 -36 -28
-119 -58 -219 -77 -47 -10 -82 -21 -78 -25 5 -5 46 0 91 11 102 24 115 24 42
-1 -30 -10 -42 -16 -26 -13 15 3 42 8 60 11 l31 6 -25 -23 c-18 -16 -15 -15
13 4 33 24 97 56 112 56 3 0 5 -11 5 -25 0 -36 -30 -60 -89 -75 -29 -7 -50
-14 -48 -17 3 -2 31 3 63 11 32 8 60 13 62 11 15 -14 -78 -70 -201 -121 -45
-18 -76 -34 -69 -34 8 0 42 11 77 25 34 14 71 23 81 19 13 -4 15 -3 6 3 -9 7
2 16 38 33 27 13 53 20 56 17 4 -4 -13 -16 -37 -27 l-44 -21 37 7 38 6 -14
-47 c-8 -26 -17 -49 -19 -52 -3 -2 -79 -33 -169 -68 -89 -36 -154 -65 -143
-66 17 -1 16 -2 -5 -9 -14 -4 -18 -8 -10 -9 25 -2 150 36 229 69 41 16 76 28
79 25 2 -2 -5 -28 -17 -58 -21 -52 -24 -55 -99 -87 -42 -18 -81 -37 -86 -41
-9 -8 93 14 127 27 16 6 15 0 -8 -47 -32 -62 -39 -68 -80 -70 -29 -2 -29 -2 5
-8 l35 -6 -22 -23 c-13 -12 -35 -22 -50 -23 -16 -1 -39 -5 -53 -10 -19 -6 -12
-8 28 -5 28 2 52 1 52 -1 0 -10 -87 -132 -138 -192 -139 -167 -319 -330 -483
-438 -528 -345 -1530 -547 -2584 -519 -597 16 -909 62 -1875 276 -634 140
-728 157 -745 131 -15 -26 186 -131 550 -286 525 -224 717 -281 1165 -349 426
-65 883 -100 1305 -101 564 0 1023 73 1570 252 226 74 375 135 703 287 149 69
275 126 279 126 3 0 77 34 163 75 176 84 249 111 321 121 l49 7 -5 -34 -5 -34
10 32 c10 32 27 50 36 40 3 -3 -4 -23 -15 -46 -12 -22 -21 -44 -21 -48 1 -4
10 10 22 32 19 35 22 38 29 20 6 -16 8 -13 8 14 l1 34 50 -5 c28 -3 53 -8 56
-11 4 -3 -5 -26 -20 -51 -14 -24 -26 -48 -26 -53 0 -4 14 16 31 45 17 28 35
49 41 46 5 -3 7 -12 4 -19 -6 -16 54 -197 83 -250 12 -22 19 -31 17 -20 -30
121 -56 241 -56 258 1 22 1 22 15 3 8 -11 15 -15 15 -8 0 9 6 9 26 0 23 -11
25 -16 19 -47 -8 -43 -8 -41 -5 -66 1 -11 6 4 10 33 8 55 19 77 27 54 3 -6 9
-10 14 -7 14 9 49 -14 50 -33 0 -14 2 -14 9 3 6 16 10 8 16 -35 l8 -55 9 44 9
45 19 -53 c26 -74 32 -76 24 -8 -6 49 -5 57 9 57 9 0 16 -8 16 -17 0 -13 3
-14 12 -5 14 14 48 16 48 2 0 -5 6 -7 13 -4 10 4 13 -15 11 -88 -3 -106 2
-100 11 15 6 73 8 78 28 75 12 -2 22 -8 22 -15 0 -6 3 -15 8 -19 4 -4 7 -18 7
-31 0 -14 4 -21 10 -18 6 3 10 -3 10 -14 0 -32 15 -25 26 11 5 18 15 32 21 31
14 -3 13 39 -2 50 -6 5 -4 7 5 5 8 -1 28 1 45 6 23 6 32 3 43 -11 12 -14 14
-15 9 -2 -4 13 3 18 35 23 25 4 46 2 54 -5 11 -9 14 -8 14 5 0 26 18 19 35
-14 9 -17 18 -30 21 -30 2 0 0 9 -6 19 -13 25 -13 41 0 41 5 0 23 -27 40 -60
17 -33 33 -60 35 -60 3 0 2 8 -3 18 -14 25 -24 122 -14 122 5 0 16 -17 25 -37
l15 -38 1 36 c1 43 13 55 63 64 30 6 37 4 41 -12 4 -15 5 -15 6 3 2 35 27 37
41 4 15 -35 14 -37 -46 -120 l-47 -65 60 58 c53 51 61 56 73 42 11 -13 9 -20
-11 -43 -16 -18 -12 -16 13 7 l36 33 17 -28 c9 -16 13 -20 10 -9 -4 11 -9 29
-12 40 -4 16 -3 17 6 5 9 -13 11 -12 11 6 0 11 12 31 26 45 25 24 26 24 40 5
19 -26 19 -28 -16 -96 -78 -155 -45 -239 152 -387 306 -231 427 -290 651 -318
144 -18 159 -26 264 -142 100 -109 147 -133 204 -103 30 17 23 52 -26 123 -64
93 -63 95 43 90 77 -5 94 -3 147 20 33 14 78 28 100 31 46 8 259 45 293 52 52
10 15 38 -80 58 l-63 13 45 14 c27 8 80 13 133 12 118 -2 115 16 -10 66 -37
15 -69 33 -71 39 -7 21 104 45 174 37 71 -7 80 1 38 34 -38 30 -117 51 -192
51 -51 0 -83 -8 -160 -39 -224 -90 -375 -124 -547 -124 -139 -1 -179 10 -361
98 -83 40 -121 65 -149 97 -48 55 -85 133 -85 180 0 41 34 89 81 114 28 14 29
14 30 -8 1 -17 2 -18 6 -6 4 15 8 16 25 7 12 -6 17 -16 14 -26 -5 -12 -3 -13
7 -5 10 9 19 7 36 -5 18 -12 22 -22 17 -47 l-5 -31 15 28 c17 32 16 31 54 12
16 -8 71 -26 121 -40 125 -33 155 -56 233 -174 73 -110 101 -137 152 -147 72
-13 81 27 29 139 -19 42 -35 78 -35 81 0 11 37 6 73 -9 41 -17 114 -19 172 -5
22 6 125 13 230 16 104 3 192 7 194 10 10 9 -28 36 -82 58 -31 13 -54 26 -50
29 12 12 127 7 183 -8 30 -8 56 -12 58 -10 11 11 -12 38 -55 64 -81 50 -95 63
-85 73 16 16 153 12 195 -6 35 -15 37 -15 37 2 0 26 -36 57 -105 88 -74 34
-151 41 -229 21 l-59 -16 6 62 c13 131 30 219 44 224 8 3 15 4 17 2 2 -2 -7
-44 -20 -94 -12 -49 -23 -103 -23 -120 1 -17 7 -3 14 35 8 36 20 85 28 110
l15 45 1 -40 c1 -22 6 -47 11 -55 7 -10 8 8 4 57 -7 72 -7 72 20 83 39 14 46
13 47 -12 1 -22 1 -22 8 2 5 17 18 29 45 38 22 7 41 11 43 9 2 -2 -4 -23 -12
-47 -21 -60 -19 -62 12 -10 14 25 33 53 41 63 20 23 46 23 39 0 -17 -54 -16
-62 4 -21 19 43 27 49 72 63 28 8 54 15 58 15 5 0 2 -21 -6 -47 -22 -71 -17
-76 8 -9 17 47 28 61 50 69 16 5 31 7 34 3 3 -3 -8 -27 -25 -53 -38 -60 -92
-173 -92 -193 0 -8 11 11 24 43 43 103 136 240 152 224 3 -3 12 -38 20 -78 7
-40 18 -77 23 -82 12 -12 11 33 -1 49 -5 7 -11 35 -15 63 -6 56 8 70 26 24
l11 -28 -6 31 c-4 27 -1 32 18 38 47 12 49 5 15 -46 -21 -30 -40 -78 -32 -78
1 0 15 25 31 56 34 68 44 75 44 32 0 -18 3 -51 7 -73 6 -36 7 -38 14 -15 4 14
7 50 8 81 1 50 4 57 24 63 55 15 59 11 36 -45 -11 -29 -18 -53 -16 -56 2 -2
12 18 22 44 25 66 32 73 76 73 22 0 39 -1 39 -3 0 -2 -11 -31 -25 -65 -14 -34
-25 -70 -25 -79 1 -10 14 18 30 61 27 71 47 103 58 91 2 -2 -7 -36 -21 -77
-13 -40 -27 -89 -31 -108 -4 -19 9 9 27 62 35 102 50 128 73 128 17 0 17 0 -1
-85 -19 -88 -19 -139 0 -70 7 28 22 73 32 100 17 47 21 50 57 53 21 2 42 0 47
-5 4 -4 3 -28 -2 -53 -6 -25 -7 -60 -4 -79 6 -33 7 -31 34 45 l27 79 55 -3
c29 -1 64 -4 76 -7 21 -5 21 -7 7 -40 -21 -51 -16 -57 6 -7 18 40 32 48 62 37
12 -5 10 -18 -9 -73 -12 -37 -22 -76 -22 -87 1 -11 7 2 14 30 22 79 47 127 63
120 7 -3 20 -5 28 -5 8 0 15 -10 15 -22 1 -17 2 -19 6 -5 2 9 9 17 14 17 6 0
8 -8 5 -17 -3 -10 -7 -40 -11 -68 l-5 -50 20 63 c22 66 25 67 80 52 l35 -10 1
-67 c0 -39 -3 -59 -7 -47 -6 15 -8 13 -8 -11 -1 -16 -4 -41 -7 -55 l-5 -25 13
23 c8 12 17 19 21 16 4 -4 7 4 7 17 0 13 13 47 30 75 25 45 32 51 54 47 15 -3
26 -8 26 -12 0 -3 -14 -41 -31 -84 -16 -44 -28 -84 -26 -90 3 -7 8 -3 12 8 23
62 69 155 77 155 5 0 18 -5 29 -11 20 -10 20 -10 -1 -45 -11 -20 -17 -40 -14
-46 4 -6 2 -8 -3 -5 -6 4 -19 -3 -29 -16 l-19 -22 24 20 24 20 -6 -40 c-6 -37
-5 -36 13 15 11 30 27 61 36 70 14 14 15 11 9 -25 l-6 -40 15 33 c11 22 20 31
28 26 10 -6 136 -95 157 -111 2 -1 -12 -38 -32 -80 -67 -148 -59 -156 19 -20
47 82 73 95 48 25 -19 -55 -17 -62 6 -13 10 22 19 33 19 25 1 -11 3 -12 9 -3
5 8 54 -19 159 -87 170 -111 182 -124 284 -305 91 -161 104 -179 168 -224 69
-48 92 -58 184 -81 54 -13 82 -14 128 -7 47 8 68 7 99 -6 22 -8 40 -14 40 -12
0 3 -18 32 -40 66 -22 34 -40 66 -40 71 0 20 36 19 105 -1 41 -12 102 -24 137
-28 45 -4 79 -16 118 -39 30 -18 56 -28 58 -24 5 13 -60 109 -97 144 -28 27
-59 91 -49 102 3 2 26 -3 52 -12 26 -9 49 -14 52 -11 9 9 -71 90 -123 126 -27
18 -62 54 -80 81 -43 65 -104 95 -176 86 -56 -7 -322 26 -356 43 -25 14 -76
95 -95 154 -22 66 -20 68 21 22 l35 -40 -27 50 c-16 28 -34 59 -42 70 -13 19
-19 126 -7 138 3 3 29 -22 56 -56 28 -34 58 -69 66 -77 19 -19 16 -14 -55 99
-61 98 -67 119 -25 97 39 -21 118 -106 202 -216 101 -133 176 -177 333 -196
43 -5 69 -2 103 11 33 12 58 15 91 10 l46 -7 -47 53 c-26 28 -45 57 -43 63 2
6 25 10 53 9 27 0 89 -2 138 -3 62 -1 101 -7 134 -21 25 -11 50 -18 56 -15 6
2 -24 38 -67 80 -43 42 -82 87 -87 101 -11 29 -4 31 49 15 19 -5 37 -7 40 -5
10 10 -45 57 -108 92 -37 20 -83 53 -103 74 -51 51 -100 65 -174 50 -32 -6
-95 -11 -140 -11 l-83 0 -39 68 c-21 37 -52 90 -68 119 l-29 52 28 57 c16 31
32 53 36 48 4 -5 15 -44 25 -87 10 -43 20 -76 23 -74 2 3 -3 31 -11 63 -19 79
-29 153 -18 134 5 -8 17 -45 27 -83 10 -37 20 -66 21 -64 2 2 -3 38 -11 81
-18 96 -18 116 1 141 13 17 16 18 25 5 7 -11 8 -8 3 11 -6 30 14 51 27 27 4
-8 17 -26 29 -39 15 -19 14 -13 -6 24 -25 45 -25 49 -10 72 9 14 20 25 24 25
5 0 19 -25 31 -55 13 -30 27 -57 31 -60 4 -3 -5 27 -21 65 l-30 70 32 45 c18
25 35 45 38 45 3 0 28 -37 55 -80 52 -85 69 -100 37 -34 -31 64 -55 164 -43
176 7 7 18 -16 36 -76 15 -47 28 -86 30 -86 9 0 -4 89 -18 122 -23 54 -20 81
12 112 l29 27 46 -80 c26 -44 51 -82 56 -85 5 -4 -5 17 -22 47 -18 29 -41 72
-51 95 l-19 42 23 25 c13 14 27 25 32 25 5 0 20 -25 33 -55 26 -59 35 -67 35
-34 0 11 -4 18 -8 15 -5 -3 -17 18 -27 45 l-18 51 32 31 c18 18 30 25 27 17
-11 -36 -16 -131 -6 -125 5 3 10 23 10 43 0 66 15 71 44 14 15 -29 29 -52 31
-52 3 0 -8 27 -25 60 -16 33 -30 67 -30 77 0 17 77 103 92 103 4 0 9 -55 10
-122 l1 -123 7 126 c4 69 12 134 18 145 10 16 12 12 13 -26 l2 -45 6 48 c7 47
52 110 67 94 4 -4 2 -53 -5 -109 -7 -57 -14 -125 -17 -153 -8 -78 11 -41 26
50 12 74 29 130 30 97 0 -17 42 -114 46 -109 3 2 -3 20 -11 40 -19 46 -19 71
1 160 13 54 19 67 24 52 26 -70 55 -190 60 -250 6 -63 7 -67 15 -37 4 19 11
29 15 23 3 -6 5 15 2 46 -2 32 2 78 8 103 6 25 15 65 20 90 18 96 75 208 95
188 3 -3 -3 -33 -14 -66 -10 -34 -15 -60 -11 -57 9 6 4 -47 -10 -102 -5 -18
-5 -45 -1 -60 6 -24 9 -19 21 37 7 36 20 79 28 95 17 34 112 175 119 175 2 0
-20 -44 -48 -97 -29 -53 -48 -93 -42 -90 6 4 16 20 23 37 7 16 16 27 21 24 5
-3 6 3 2 12 -4 11 -2 15 4 11 6 -4 13 3 17 16 3 13 28 55 56 93 37 50 61 74
92 87 22 9 43 15 45 13 3 -2 -7 -24 -21 -48 -25 -43 -79 -178 -74 -183 2 -2
32 53 68 122 44 85 73 129 90 138 33 17 424 149 518 174 l72 20 -11 -22 c-27
-52 -128 -178 -203 -252 -45 -44 -63 -66 -41 -48 65 50 157 152 220 241 33 47
69 88 83 93 14 5 26 8 27 7 2 -2 -19 -39 -47 -83 -49 -79 -148 -275 -148 -291
0 -5 31 50 68 121 72 138 130 233 155 254 9 7 24 11 35 9 17 -3 14 -15 -35
-128 -60 -139 -216 -459 -288 -590 -26 -47 -43 -80 -37 -75 40 39 254 466 357
713 29 67 44 92 57 92 22 0 22 0 -2 -140 -12 -63 -23 -142 -25 -175 -2 -33 -9
-112 -15 -175 -5 -63 -10 -159 -10 -213 0 -78 -4 -106 -20 -137 -11 -22 -18
-40 -16 -40 3 0 12 12 20 27 14 27 14 26 20 -42 11 -114 15 -117 10 -7 -4 100
-3 106 29 180 70 160 137 398 177 636 11 66 22 122 25 124 13 14 13 -11 -2
-88 -21 -103 -24 -510 -6 -575 10 -36 11 -33 5 30 -12 125 -6 394 12 490 28
153 29 157 83 179 95 39 200 174 255 328 55 155 46 295 -23 352 l-29 25 79
118 c78 117 201 329 201 348 0 5 -27 -37 -61 -95 -58 -101 -167 -268 -209
-320 -17 -21 -15 -11 11 60 35 96 99 339 99 373 -1 12 -14 -27 -30 -88 -26
-103 -113 -362 -125 -373 -29 -29 16 198 82 417 38 128 110 316 154 404 16 31
27 57 23 57 -9 0 -98 -195 -138 -301 -46 -125 -89 -274 -121 -424 -14 -65 -28
-121 -31 -124 -2 -3 -9 0 -14 5 -7 7 -4 38 10 95 11 46 29 138 39 204 11 66
20 125 21 130 1 6 1 55 0 110 l-3 100 -8 -115 c-8 -114 -9 -118 -68 -240 -33
-69 -60 -116 -61 -105 -4 137 -47 434 -71 487 -9 22 -9 22 -4 -2 40 -189 72
-568 48 -583 -5 -3 -27 8 -47 25 -36 30 -38 34 -33 77 3 25 3 38 0 29 -5 -22
-23 -24 -23 -3 0 20 -60 208 -65 203 -2 -2 6 -37 19 -78 42 -134 40 -140 -14
-53 -28 45 -56 85 -62 89 -7 4 -3 -6 9 -22 23 -33 93 -166 93 -178 0 -9 -136
101 -207 167 -28 27 -55 48 -60 48 -22 0 -131 96 -140 124 -5 17 -8 20 -6 7 4
-26 4 -26 -63 19 -33 22 -50 47 -92 133 -28 58 -53 106 -56 106 -3 0 15 -42
39 -92 24 -51 41 -95 39 -97 -5 -5 -69 43 -124 93 l-45 41 35 -39 35 -38 -31
15 c-17 9 -55 42 -84 74 -29 32 -71 73 -94 92 -24 20 -13 6 27 -35 37 -38 67
-72 67 -76 0 -3 -18 1 -40 9 -28 11 -47 28 -65 59 -14 24 -30 46 -36 50 -7 4
0 -10 14 -32 15 -21 25 -39 23 -41 -11 -11 -98 37 -141 77 -27 25 -72 61 -100
79 -60 40 -52 31 34 -40 36 -29 60 -54 54 -56 -5 -2 -43 9 -84 25 -73 28 -74
28 -119 104 -25 43 -51 83 -59 90 -8 7 -5 0 6 -17 11 -16 30 -50 42 -73 l22
-44 -43 29 c-57 39 -126 79 -113 66 6 -5 45 -34 88 -63 43 -29 76 -54 74 -56
-8 -8 -72 17 -96 38 -14 13 -19 15 -12 6 25 -34 -8 -19 -57 24 -71 63 -95 80
-38 26 27 -26 48 -50 45 -52 -4 -4 -262 50 -289 61 -8 4 -23 7 -32 8 -45 5
-115 30 -138 49 -21 18 -22 18 -10 2 14 -18 13 -19 -15 -12 -56 14 -175 77
-191 101 -8 13 -32 68 -53 123 -65 171 -175 336 -278 417 -98 77 -239 105
-355 69z m-2157 -241 c13 -16 12 -17 -3 -4 -10 7 -18 15 -18 17 0 8 8 3 21
-13z m-26 -103 c10 -11 16 -20 13 -20 -3 0 -13 9 -23 20 -10 11 -16 20 -13 20
3 0 13 -9 23 -20z m873 -295 c-3 -3 -9 2 -12 12 -6 14 -5 15 5 6 7 -7 10 -15
7 -18z m4268 -877 c-41 -194 -43 -200 -68 -187 -17 9 -20 18 -16 57 5 45 96
268 105 258 3 -3 -7 -60 -21 -128z m-8668 -840 c-8 -24 -58 -40 -96 -33 l-37
8 50 17 c60 22 88 24 83 8z m-150 -15 c-10 -2 -26 -2 -35 0 -10 3 -2 5 17 5
19 0 27 -2 18 -5z m97 -133 c-11 -18 -66 -41 -88 -38 -19 3 9 17 91 47 2 0 0
-4 -3 -9z m0 -30 c-3 -5 -12 -10 -18 -10 -7 0 -6 4 3 10 19 12 23 12 15 0z
m8465 -28 c0 -35 -41 -248 -71 -365 -43 -171 -124 -406 -135 -394 -6 6 13 319
26 417 7 51 21 95 44 140 19 36 46 94 61 130 25 60 47 90 67 90 4 0 8 -8 8
-18z m-112 -113 c-24 -56 -44 -96 -46 -88 -1 8 6 54 16 104 16 80 20 90 42 95
14 4 26 3 28 -1 2 -4 -16 -54 -40 -110z m-8420 -116 c-10 -2 -28 -2 -40 0 -13
2 -5 4 17 4 22 1 32 -1 23 -4z m-35 -110 c-7 -2 -19 -2 -25 0 -7 3 -2 5 12 5
14 0 19 -2 13 -5z m7348 -45 c-12 -18 -33 -55 -47 -81 -31 -59 -40 -55 -25 10
13 53 26 74 56 91 34 19 38 13 16 -20z m-7368 15 c-7 -2 -21 -2 -30 0 -10 3
-4 5 12 5 17 0 24 -2 18 -5z m47 -43 c0 -5 -15 -10 -32 -9 -28 0 -30 2 -13 9
28 12 45 12 45 0z m-41 -26 c24 -5 31 -12 31 -30 0 -22 -4 -24 -47 -24 -68 0
-153 11 -153 20 0 8 93 38 121 39 9 1 31 -2 48 -5z m7141 -79 c-6 -19 -13 -63
-15 -96 -5 -70 -11 -84 -20 -43 -3 16 -13 51 -21 78 -19 67 -19 69 24 94 42
24 49 17 32 -33z m-116 -62 c-4 -21 -13 -56 -20 -78 l-14 -40 5 61 c5 67 12
94 27 94 5 0 6 -16 2 -37z m-7024 -177 l0 -34 -140 -46 c-77 -25 -144 -46
-148 -46 -4 0 43 27 103 58 61 32 126 68 145 80 19 12 36 22 38 22 1 0 2 -15
2 -34z m6484 -373 c21 -63 20 -65 -9 -18 -26 42 -31 65 -16 65 5 0 16 -21 25
-47z m-345 -508 c1 12 18 -7 47 -55 26 -41 53 -83 62 -92 14 -17 13 -18 -16
-18 -38 0 -82 51 -82 96 0 20 -3 25 -9 16 -10 -16 -21 17 -20 58 l1 25 8 -25
c7 -20 8 -21 9 -5z m-1739 -223 c0 -17 -39 -116 -40 -100 0 28 23 108 32 108
4 0 8 -4 8 -8z m501 -115 c-8 -8 -11 -7 -11 4 0 20 13 34 18 19 3 -7 -1 -17
-7 -23z m-34 -29 c-3 -8 -6 -5 -6 6 -1 11 2 17 5 13 3 -3 4 -12 1 -19z m-1693
-100 c-3 -11 -9 -73 -13 -137 l-6 -115 -75 -14 c-44 -9 -147 -15 -250 -16
-181 -1 -237 7 -335 50 l-40 17 50 14 c28 7 106 34 175 59 161 59 167 60 173
37 4 -14 5 -13 6 5 1 16 11 27 34 36 64 27 75 28 80 9 4 -15 5 -14 6 3 1 13
10 24 24 28 45 12 49 9 43 -41 l-5 -48 10 45 c21 87 48 94 50 13 1 -36 4 -48
8 -33 4 19 7 11 12 -30 5 -49 6 -44 7 37 2 91 6 100 40 102 9 1 11 -6 6 -21z
m-1754 -202 c0 -24 -42 -61 -54 -49 -12 12 -6 37 15 60 25 26 39 22 39 -11z
m40 24 c0 -5 -4 -10 -9 -10 -6 0 -13 5 -16 10 -3 6 1 10 9 10 9 0 16 -4 16
-10z m-153 -31 c1 -10 -5 -23 -13 -29 -11 -10 -16 -8 -23 11 -11 29 -8 35 16
35 11 0 20 -8 20 -17z m157 -33 c-6 -16 -8 -17 -16 -2 -11 19 0 42 13 29 6 -6
7 -18 3 -27z m-367 -18 c-3 -8 -6 -5 -6 6 -1 11 2 17 5 13 3 -3 4 -12 1 -19z
m233 -34 c0 -26 -17 -33 -26 -9 -8 20 3 48 16 40 5 -3 10 -17 10 -31z m-585
-24 c3 -11 0 -29 -8 -40 l-14 -21 -6 21 c-6 24 2 60 13 60 5 0 11 -9 15 -20z"/>
<path d="M9072 1200 c0 -19 2 -27 5 -17 2 9 2 25 0 35 -3 9 -5 1 -5 -18z"/>
<path d="M9142 1170 c0 -14 2 -19 5 -12 2 6 2 18 0 25 -3 6 -5 1 -5 -13z"/>
<path d="M8953 1135 c0 -27 2 -38 4 -22 2 15 2 37 0 50 -2 12 -4 0 -4 -28z"/>
<path d="M8995 5820 c10 -11 20 -20 23 -20 3 0 -3 9 -13 20 -10 11 -20 20 -23
20 -3 0 3 -9 13 -20z"/>
<path d="M8793 5803 c9 -11 14 -23 10 -26 -3 -4 -1 -7 5 -7 23 0 21 19 -6 35
-27 18 -27 18 -9 -2z"/>
<path d="M7780 5656 c0 -2 8 -10 18 -17 15 -13 16 -12 3 4 -13 16 -21 21 -21
13z"/>
<path d="M10451 5644 c0 -11 3 -14 6 -6 3 7 2 16 -1 19 -3 4 -6 -2 -5 -13z"/>
<path d="M10461 5610 c0 -8 4 -24 9 -35 5 -13 9 -14 9 -5 0 8 -4 24 -9 35 -5
13 -9 14 -9 5z"/>
<path d="M7880 5606 c0 -2 8 -10 18 -17 15 -13 16 -12 3 4 -13 16 -21 21 -21
13z"/>
<path d="M10790 5340 c11 -22 23 -40 25 -40 3 0 -4 18 -15 40 -11 22 -23 40
-25 40 -3 0 4 -18 15 -40z"/>
<path d="M12970 5276 c0 -2 14 -14 30 -26 17 -12 30 -19 30 -16 0 2 -13 14
-30 26 -16 12 -30 19 -30 16z"/>
<path d="M13770 5106 c0 -2 8 -10 18 -17 15 -13 16 -12 3 4 -13 16 -21 21 -21
13z"/>
<path d="M13960 4976 c0 -2 8 -10 18 -17 15 -13 16 -12 3 4 -13 16 -21 21 -21
13z"/>
<path d="M15142 4770 c0 -14 2 -19 5 -12 2 6 2 18 0 25 -3 6 -5 1 -5 -13z"/>
<path d="M15132 4710 c0 -14 2 -19 5 -12 2 6 2 18 0 25 -3 6 -5 1 -5 -13z"/>
<path d="M14425 4650 c10 -11 20 -20 23 -20 3 0 -3 9 -13 20 -10 11 -20 20
-23 20 -3 0 3 -9 13 -20z"/>
<path d="M14761 4494 c0 -11 3 -14 6 -6 3 7 2 16 -1 19 -3 4 -6 -2 -5 -13z"/>
<path d="M6523 4353 c9 -2 23 -2 30 0 6 3 -1 5 -18 5 -16 0 -22 -2 -12 -5z"/>
<path d="M6328 4113 c7 -3 16 -2 19 1 4 3 -2 6 -13 5 -11 0 -14 -3 -6 -6z"/>
<path d="M6128 3783 c7 -3 16 -2 19 1 4 3 -2 6 -13 5 -11 0 -14 -3 -6 -6z"/>
<path d="M6148 3713 c7 -3 16 -2 19 1 4 3 -2 6 -13 5 -11 0 -14 -3 -6 -6z"/>
<path d="M5998 3563 c6 -2 18 -2 25 0 6 3 1 5 -13 5 -14 0 -19 -2 -12 -5z"/>
<path d="M5908 3343 c7 -3 16 -2 19 1 4 3 -2 6 -13 5 -11 0 -14 -3 -6 -6z"/>
<path d="M14470 3088 c-12 -22 -12 -22 6 -6 10 10 15 20 12 24 -4 3 -12 -5
-18 -18z"/>
<path d="M5943 2873 c9 -2 23 -2 30 0 6 3 -1 5 -18 5 -16 0 -22 -2 -12 -5z"/>
<path d="M12981 2634 c0 -11 3 -14 6 -6 3 7 2 16 -1 19 -3 4 -6 -2 -5 -13z"/>
<path d="M14084 2568 c-4 -7 -14 -24 -22 -38 -14 -24 -13 -24 3 -5 20 24 37
55 31 55 -3 0 -8 -6 -12 -12z"/>
<path d="M5828 2393 c7 -3 16 -2 19 1 4 3 -2 6 -13 5 -11 0 -14 -3 -6 -6z"/>
<path d="M14492 2345 c0 -16 2 -22 5 -12 2 9 2 23 0 30 -3 6 -5 -1 -5 -18z"/>
<path d="M5898 2333 c6 -2 18 -2 25 0 6 3 1 5 -13 5 -14 0 -19 -2 -12 -5z"/>
<path d="M12680 2165 c0 -5 5 -17 10 -25 5 -8 10 -10 10 -5 0 6 -5 17 -10 25
-5 8 -10 11 -10 5z"/>
<path d="M12550 2040 c6 -11 13 -20 16 -20 2 0 0 9 -6 20 -6 11 -13 20 -16 20
-2 0 0 -9 6 -20z"/>
<path d="M10451 1403 c-1 -12 4 -25 9 -28 12 -7 12 2 0 30 -8 19 -9 19 -9 -2z"/>
<path d="M10192 1370 c0 -14 2 -19 5 -12 2 6 2 18 0 25 -3 6 -5 1 -5 -13z"/>
<path d="M9731 1334 c0 -11 3 -14 6 -6 3 7 2 16 -1 19 -3 4 -6 -2 -5 -13z"/>
<path d="M9442 1310 c0 -14 2 -19 5 -12 2 6 2 18 0 25 -3 6 -5 1 -5 -13z"/>
<path d="M11171 1284 c0 -11 3 -14 6 -6 3 7 2 16 -1 19 -3 4 -6 -2 -5 -13z"/>
<path d="M11069 1263 c-13 -16 -12 -17 4 -4 16 13 21 21 13 21 -2 0 -10 -8
-17 -17z"/>
<path d="M6091 1043 c0 -29 2 -33 8 -18 7 18 4 55 -5 55 -2 0 -4 -17 -3 -37z"/>
<path d="M6296 1061 c4 -17 3 -21 -6 -16 -9 6 -11 4 -5 -4 5 -9 11 -9 17 -3 7
7 6 16 -1 29 -11 16 -11 15 -5 -6z"/>
<path d="M6380 1075 c0 -5 5 -17 10 -25 5 -8 10 -10 10 -5 0 6 -5 17 -10 25
-5 8 -10 11 -10 5z"/>
<path d="M7311 1034 c0 -11 3 -14 6 -6 3 7 2 16 -1 19 -3 4 -6 -2 -5 -13z"/>
<path d="M6275 1009 c-4 -6 -5 -12 -2 -15 2 -3 7 2 10 11 7 17 1 20 -8 4z"/>
<path d="M7090 960 c6 -11 13 -20 16 -20 2 0 0 9 -6 20 -6 11 -13 20 -16 20
-2 0 0 -9 6 -20z"/>
<path d="M8132 920 c0 -14 2 -19 5 -12 2 6 2 18 0 25 -3 6 -5 1 -5 -13z"/>
<path d="M6791 894 c0 -11 3 -14 6 -6 3 7 2 16 -1 19 -3 4 -6 -2 -5 -13z"/>
</g>
</svg>
