<svg xmlns="http://www.w3.org/2000/svg" width="256" height="256" preserveAspectRatio="xMidYMid meet" style="-ms-transform:rotate(360deg);-webkit-transform:rotate(360deg)" transform="rotate(360)" viewBox="0 0 2560 2560">
  <path d="M1270 2560C590 2560 0 1990 0 1270a1280 1280 0 11 1270 1290zm0 0C590 2560 0 1990 0 1270a1280 1280 0 11 1270 1290" fill="#FFF"/>
  <path d="M1270 2390c-590 0-1100-490-1100-1120a1110 1110 0 01 2220 10c0 610-500 1110-1120 1110zm0 0c-590 0-1100-490-1100-1120a1110 1110 0 01 2220 10c0 610-500 1110-1120 1110" fill="#49A32B"/>
  <path d="M1690 1280c0 50-50 100-90 90a90 90 0 01-90-90 90 90 0 01 90-90c50 0 100 40 90 90zm-810 510h60v140c-130 20-250-20-270-130a770 770 0 01-20-130v-140c-10-120-30-170-150-170v-160a230 230 0 01 30 0c60-10 90-30 110-90a750 750 0 00 10-110l10-220c20-100 80-150 190-160h90v140h-40c-80 0-90 30-90 100v140a1070 1070 0 01-20 130c-10 60-50 110-110 150 110 70 120 170 130 280v170c10 50 30 60 70 60zm90-600a90 90 0 01 90 90 90 90 0 01-90 90 90 90 0 11 0-180zm310 0c60 0 90 30 90 90 0 50-30 90-80 90-60 0-100-40-100-90a90 90 0 01 90-90zm660-70c10 50 40 70 100 80h30v160h-20c-80 10-110 40-120 110l-10 150a1260 1260 0 01-20 160c-10 100-80 150-180 160h-90v-140l50-10c60 0 80-20 80-80l10-190c0-100 30-180 120-240-50-40-90-80-100-140l-30-210V820c-10-40-40-50-70-60h-70V630c170-30 280 30 290 180l10 200 20 110" fill="#FFF"/>
  <path d="M0 0h2560v2560H0" fill="rgba(0, 0, 0, 0)"/>
</svg>
